<svg width="156" height="60" viewBox="0 0 156 60" fill="none" xmlns="http://www.w3.org/2000/svg">
<path d="M86.4814 31.9065C86.8077 31.5111 87.5693 31.3135 88.5484 31.3135C90.0715 31.3135 91.377 31.8076 92.465 32.796C93.5529 33.7844 93.9881 34.8716 93.9881 36.1565C93.9881 37.4414 93.4441 38.6274 92.465 39.517C91.4858 40.4065 90.0715 40.9995 88.5484 40.9995C87.0253 40.9995 85.7198 40.5053 84.6319 39.517C83.544 38.5286 83 37.4414 83 36.1565C83.1088 34.3774 83.6528 32.5983 84.6319 30.7204C85.611 28.8425 87.1341 26.6681 88.9836 24.0983H91.8122C89.5276 27.1623 87.6781 29.7321 86.4814 31.9065ZM86.3726 33.9821C85.7198 34.5751 85.3934 35.2669 85.3934 36.1565C85.3934 37.046 85.7198 37.7379 86.3726 38.2321C87.0253 38.7263 87.6781 39.1216 88.5484 39.1216C89.4188 39.1216 90.0715 38.8251 90.7243 38.2321C91.377 37.639 91.7034 36.9472 91.7034 36.1565C91.7034 35.3658 91.377 34.5751 90.7243 33.9821C90.0715 33.389 89.4188 33.0925 88.5484 33.0925C87.6781 33.0925 87.0253 33.389 86.3726 33.9821Z" fill="#0E262F"/>
<path d="M107.261 28.2495L110.96 36.9472L114.768 24.0983H117.052L112.156 40.8018H110.089L106.39 32.0053L102.692 40.8018H100.624L95.7288 24.0983H98.1222L101.93 36.9472L105.629 28.2495H107.261Z" fill="#0E262F"/>
<path d="M124.45 24.0983L131.086 40.8018H128.693L125.973 33.8832H120.969L118.14 40.8018H115.747L122.492 24.0983H124.45ZM125.212 32.0053L123.471 27.5576L121.73 32.0053H125.212Z" fill="#0E262F"/>
<path d="M142.183 24.0983H144.577L137.94 40.8018H136.308L129.781 24.0983H132.174L137.179 36.9472L142.183 24.0983Z" fill="#0E262F"/>
<path d="M156 25.8774H148.276V31.5111H156V33.2902H148.276V38.9239H156V40.703H145.991V23.9995H156V25.8774Z" fill="#0E262F"/>
<path d="M16.076 26.9676C19.9154 20.1056 27.7009 15.3093 36.873 16.2195C41.9922 16.7097 46.3294 18.8803 49.92 22.4513C53.475 26.0223 55.5014 30.3285 56.1769 35.2999C56.248 35.2999 56.3191 35.2999 56.3546 35.2999C56.4613 34.7398 56.639 34.2146 56.7101 33.6545C57.3145 29.0332 56.8523 24.5519 54.9326 20.2807C51.1643 11.9833 44.623 6.94191 35.5932 5.22642C24.1459 3.0558 12.4854 9.00749 7.47274 19.3704C5.94407 22.5213 5.05531 25.8123 5.05531 29.3132C5.05531 40.0963 10.0679 47.9385 19.8087 52.8049C23.6126 54.6954 27.7009 55.5007 31.9315 55.2556C34.5622 55.1156 36.873 53.9602 38.9349 52.3498C42.0633 49.8991 43.8053 46.5731 44.7296 42.7921C45.6184 39.081 45.5473 35.44 44.2319 31.834C43.4498 29.6633 42.2411 27.7028 40.7124 25.9523C40.6413 25.8823 40.6058 25.8123 40.6413 25.6722C40.9257 25.9173 41.2457 26.1624 41.5301 26.4424C41.8145 26.7225 42.0989 27.0026 42.3833 27.2827C46.436 31.6939 48.178 36.8754 47.467 42.7571C46.6849 49.4089 43.2365 54.4154 37.2996 57.7063C33.9578 59.5618 30.3317 60.3671 26.5278 59.8419C19.7376 58.9667 13.9429 56.0258 9.07251 51.3345C4.98421 47.4134 2.28237 42.722 0.895905 37.2605C-0.028407 33.6895 -0.206159 30.0485 0.220446 26.4074C0.860354 21.0509 2.88673 16.2195 6.19292 11.9483C9.17916 8.09723 12.912 5.12139 17.3558 3.02079C21.373 1.13026 25.6035 0.11497 30.0828 0.0099403C37.584 -0.165109 44.3386 1.9705 50.2755 6.52179C54.8615 10.0228 58.1677 14.5041 60.1585 19.8606C61.9005 24.5519 62.3982 29.3833 61.6872 34.3197C60.7273 40.9365 57.7766 46.6082 52.9773 51.2995C51.5909 52.6649 49.9911 53.8552 48.4624 55.1156C48.3913 55.0806 48.3558 55.0105 48.2847 54.9755C48.3202 54.8705 48.3558 54.7655 48.4269 54.6954C51.8397 50.0391 53.3328 44.8226 52.7996 39.116C52.1597 32.2891 49.1379 26.7925 43.4498 22.7664C39.4326 19.9306 34.8821 18.7403 29.9762 19.3004C24.3948 19.9306 19.8798 22.4863 16.3248 26.7225C16.2537 26.7925 16.1471 26.8626 16.076 26.9676Z" fill="#76AF8B"/>
</svg>
